<svg xmlns="http://www.w3.org/2000/svg" viewBox="0 0 622 150.13"><defs><style>.cls-1{fill:#607d8b;}</style></defs><title>logo</title><g id="Camada_2" data-name="Camada 2"><g id="Camada_1-2" data-name="Camada 1"><path class="cls-1" d="M193,150.13H171.59c-21.45,0-42.89-21.45-42.89-42.9V85.79c0-21.45,21.45-42.9,42.89-42.9H193c21.45,0,42.9,21.45,42.9,42.9v21.45C235.93,128.69,214.48,150.13,193,150.13Zm21.45-64.34c0-10.72-10.72-21.45-21.45-21.45H171.59c-10.72,0-21.45,10.72-21.45,21.45v21.45c0,10.72,10.72,21.45,21.45,21.45H193c10.72,0,21.45-10.72,21.45-21.45Z"/><path class="cls-1" d="M300.28,150.13c-21.45,0-42.9-21.45-42.9-42.9V85.79c0-21.45,21.45-42.9,42.9-42.9h64.34V64.34H300.28c-10.72.64-21.45,10.72-21.45,21.45v21.45c0,10.51,10.94,21.45,21.45,21.45h64.34v21.45Z"/><path class="cls-1" d="M429,42.89h42.9V0h21.45V150.13H429c-21.45,0-42.89-21.45-42.89-42.9V85.79C386.07,64.34,407.52,42.89,429,42.89Zm42.9,21.45H429c-10.72.64-21.45,10.72-21.45,21.45v21.45c0,10.51,10.94,21.45,21.45,21.45h42.9Z"/><path class="cls-1" d="M579.1,150.13H557.65c-21.45,0-42.89-21.45-42.89-42.9V85.79c0-21.45,21.45-42.9,42.89-42.9H579.1c21.45,0,42.9,21.45,42.9,42.9v21.45C622,128.69,600.55,150.13,579.1,150.13Zm21.45-64.34c0-10.72-10.72-21.45-21.45-21.45H557.65c-10.72,0-21.45,10.72-21.45,21.45v21.45c0,10.72,10.72,21.45,21.45,21.45H579.1c10.72,0,21.45-10.72,21.45-21.45Z"/><path class="cls-1" d="M0,85.79c0-21.45,21.45-42.9,42.9-42.9H64.34c21.45,0,42.9,21.45,42.9,42.9v64.34H85.79V85.79c-.64-10.72-10.72-21.45-21.45-21.45H42.9c-10.51,0-21.45,10.94-21.45,21.45v64.34H0Z"/></g></g></svg>